<svg xmlns="http://www.w3.org/2000/svg" xmlns:xlink="http://www.w3.org/1999/xlink" width="500" zoomAndPan="magnify" viewBox="0 0 375 374.999991" height="500" preserveAspectRatio="xMidYMid meet" version="1.0"><defs><g/></defs><rect x="-37.5" width="450" fill="#ffffff" y="-37.499999" height="449.999989" fill-opacity="1"/><rect x="-37.5" width="450" fill="#ffffff" y="-37.499999" height="449.999989" fill-opacity="1"/><rect x="-37.5" width="450" fill="#000000" y="-37.499999" height="449.999989" fill-opacity="1"/><g fill="#ffffff" fill-opacity="1"><g transform="translate(49.687608, 263.118714)"><g><path d="M 147.003906 -2.808594 L 75.84375 -185.863281 C 75.140625 -187.734375 71.863281 -187.734375 71.160156 -185.863281 L 0.234375 -2.808594 C -0.46875 -1.40625 0.46875 0 2.574219 0 L 34.644531 0 C 35.582031 0 36.75 -0.46875 36.984375 -1.40625 L 73.5 -105.804688 L 110.488281 -1.40625 C 110.722656 -0.46875 111.890625 0 112.59375 0 L 144.898438 0 C 146.535156 0 147.707031 -1.40625 147.003906 -2.808594 Z M 147.003906 -2.808594 "/></g></g></g><g fill="#ffffff" fill-opacity="1"><g transform="translate(188.766555, 345.494014)"><g><path d="M 97.613281 -152.386719 L 73.035156 -83.800781 L 36.515625 -185.863281 C 36.28125 -186.796875 35.347656 -187.265625 34.175781 -187.265625 L 2.339844 -187.265625 C 0.46875 -187.265625 -0.46875 -185.863281 0.234375 -184.457031 L 70.691406 -1.171875 C 71.628906 0.46875 74.4375 0.46875 75.140625 -1.171875 L 133.660156 -152.386719 Z M 97.613281 -152.386719 "/></g></g></g><g fill="#ffffff" fill-opacity="1"><g transform="translate(246.427066, 185.113833)"><g><path d="M 4.21875 0 L -0.078125 0 L 6.03125 -16.53125 L 10.28125 -16.53125 L 16.234375 0 L 11.96875 0 L 11.09375 -2.765625 L 5.09375 -2.765625 Z M 8.0625 -12.46875 C 7.925781 -11.976562 7.773438 -11.453125 7.609375 -10.890625 C 7.441406 -10.335938 7.164062 -9.441406 6.78125 -8.203125 L 6.09375 -6.015625 L 10.0625 -6.015625 L 9.390625 -8.203125 C 9.160156 -8.867188 8.929688 -9.570312 8.703125 -10.3125 C 8.472656 -11.0625 8.257812 -11.78125 8.0625 -12.46875 Z M 8.0625 -12.46875 "/></g></g></g><g fill="#ffffff" fill-opacity="1"><g transform="translate(263.984918, 185.113833)"><g><path d="M 5.34375 -5.328125 L 5.34375 0 L 1.265625 0 L 1.265625 -16.53125 L 7.296875 -16.53125 C 9.847656 -16.53125 11.660156 -16.097656 12.734375 -15.234375 C 13.804688 -14.367188 14.34375 -12.9375 14.34375 -10.9375 C 14.34375 -9.582031 14.054688 -8.476562 13.484375 -7.625 C 12.910156 -6.78125 12.046875 -6.160156 10.890625 -5.765625 L 14.921875 0 L 10.015625 0 L 6.59375 -5.328125 Z M 10.203125 -10.9375 C 10.203125 -11.644531 9.988281 -12.140625 9.5625 -12.421875 C 9.144531 -12.703125 8.390625 -12.84375 7.296875 -12.84375 L 5.34375 -12.84375 L 5.34375 -8.625 L 7.296875 -8.625 C 8.390625 -8.625 9.144531 -8.789062 9.5625 -9.125 C 9.988281 -9.46875 10.203125 -10.070312 10.203125 -10.9375 Z M 10.203125 -10.9375 "/></g></g></g><g fill="#ffffff" fill-opacity="1"><g transform="translate(280.540991, 185.113833)"><g><path d="M 12.65625 -3.828125 L 12.65625 0 L 1.265625 0 L 1.265625 -16.53125 L 12.421875 -16.53125 L 12.421875 -12.84375 L 5.34375 -12.84375 L 5.34375 -10.09375 L 11.4375 -10.09375 L 11.4375 -6.671875 L 5.34375 -6.671875 L 5.34375 -3.828125 Z M 12.65625 -3.828125 "/></g></g></g><g fill="#ffffff" fill-opacity="1"><g transform="translate(295.198957, 185.113833)"><g><path d="M 15.53125 -16.53125 L 15.53125 0 L 11.625 0 L 5.09375 -9.546875 L 5.09375 0 L 1.265625 0 L 1.265625 -16.53125 L 5.140625 -16.53125 L 11.703125 -6.609375 L 11.703125 -16.53125 Z M 15.53125 -16.53125 "/></g></g></g><g fill="#ffffff" fill-opacity="1"><g transform="translate(313.33679, 185.113833)"><g><path d="M 4.21875 0 L -0.078125 0 L 6.03125 -16.53125 L 10.28125 -16.53125 L 16.234375 0 L 11.96875 0 L 11.09375 -2.765625 L 5.09375 -2.765625 Z M 8.0625 -12.46875 C 7.925781 -11.976562 7.773438 -11.453125 7.609375 -10.890625 C 7.441406 -10.335938 7.164062 -9.441406 6.78125 -8.203125 L 6.09375 -6.015625 L 10.0625 -6.015625 L 9.390625 -8.203125 C 9.160156 -8.867188 8.929688 -9.570312 8.703125 -10.3125 C 8.472656 -11.0625 8.257812 -11.78125 8.0625 -12.46875 Z M 8.0625 -12.46875 "/></g></g></g><g fill="#ffffff" fill-opacity="1"><g transform="translate(72.355639, 294.713565)"><g><path d="M 4.21875 0 L -0.078125 0 L 6.03125 -16.53125 L 10.28125 -16.53125 L 16.234375 0 L 11.96875 0 L 11.09375 -2.765625 L 5.09375 -2.765625 Z M 8.0625 -12.46875 C 7.925781 -11.976562 7.773438 -11.453125 7.609375 -10.890625 C 7.441406 -10.335938 7.164062 -9.441406 6.78125 -8.203125 L 6.09375 -6.015625 L 10.0625 -6.015625 L 9.390625 -8.203125 C 9.160156 -8.867188 8.929688 -9.570312 8.703125 -10.3125 C 8.472656 -11.0625 8.257812 -11.78125 8.0625 -12.46875 Z M 8.0625 -12.46875 "/></g></g></g><g fill="#ffffff" fill-opacity="1"><g transform="translate(89.913491, 294.713565)"><g><path d="M 5.34375 -5.328125 L 5.34375 0 L 1.265625 0 L 1.265625 -16.53125 L 7.296875 -16.53125 C 9.847656 -16.53125 11.660156 -16.097656 12.734375 -15.234375 C 13.804688 -14.367188 14.34375 -12.9375 14.34375 -10.9375 C 14.34375 -9.582031 14.054688 -8.476562 13.484375 -7.625 C 12.910156 -6.78125 12.046875 -6.160156 10.890625 -5.765625 L 14.921875 0 L 10.015625 0 L 6.59375 -5.328125 Z M 10.203125 -10.9375 C 10.203125 -11.644531 9.988281 -12.140625 9.5625 -12.421875 C 9.144531 -12.703125 8.390625 -12.84375 7.296875 -12.84375 L 5.34375 -12.84375 L 5.34375 -8.625 L 7.296875 -8.625 C 8.390625 -8.625 9.144531 -8.789062 9.5625 -9.125 C 9.988281 -9.46875 10.203125 -10.070312 10.203125 -10.9375 Z M 10.203125 -10.9375 "/></g></g></g><g fill="#ffffff" fill-opacity="1"><g transform="translate(106.469564, 294.713565)"><g><path d="M 8.4375 -3.5625 C 9.132812 -3.5625 9.894531 -3.632812 10.71875 -3.78125 C 11.550781 -3.925781 12.289062 -4.125 12.9375 -4.375 L 12.9375 -0.765625 C 11.976562 -0.378906 11.109375 -0.113281 10.328125 0.03125 C 9.554688 0.1875 8.75 0.265625 7.90625 0.265625 C 6.375 0.265625 5.148438 0.0859375 4.234375 -0.265625 C 3.328125 -0.617188 2.601562 -1.179688 2.0625 -1.953125 C 1.601562 -2.617188 1.265625 -3.46875 1.046875 -4.5 C 0.828125 -5.539062 0.71875 -6.800781 0.71875 -8.28125 C 0.71875 -11.226562 1.351562 -13.382812 2.625 -14.75 C 3.894531 -16.113281 5.921875 -16.796875 8.703125 -16.796875 C 9.503906 -16.796875 10.222656 -16.773438 10.859375 -16.734375 C 11.492188 -16.703125 12.066406 -16.640625 12.578125 -16.546875 L 12.578125 -13 C 11.992188 -13.03125 11.390625 -13.050781 10.765625 -13.0625 C 10.140625 -13.082031 9.453125 -13.09375 8.703125 -13.09375 C 7.734375 -13.09375 7.015625 -13 6.546875 -12.8125 C 6.085938 -12.632812 5.742188 -12.316406 5.515625 -11.859375 C 5.296875 -11.503906 5.140625 -11.035156 5.046875 -10.453125 C 4.960938 -9.878906 4.921875 -9.15625 4.921875 -8.28125 C 4.921875 -7.445312 4.960938 -6.753906 5.046875 -6.203125 C 5.128906 -5.648438 5.257812 -5.191406 5.4375 -4.828125 C 5.65625 -4.367188 5.984375 -4.039062 6.421875 -3.84375 C 6.867188 -3.65625 7.539062 -3.5625 8.4375 -3.5625 Z M 8.4375 -3.5625 "/></g></g></g><g fill="#ffffff" fill-opacity="1"><g transform="translate(121.206612, 294.713565)"><g><path d="M 4.21875 0 L -0.078125 0 L 6.03125 -16.53125 L 10.28125 -16.53125 L 16.234375 0 L 11.96875 0 L 11.09375 -2.765625 L 5.09375 -2.765625 Z M 8.0625 -12.46875 C 7.925781 -11.976562 7.773438 -11.453125 7.609375 -10.890625 C 7.441406 -10.335938 7.164062 -9.441406 6.78125 -8.203125 L 6.09375 -6.015625 L 10.0625 -6.015625 L 9.390625 -8.203125 C 9.160156 -8.867188 8.929688 -9.570312 8.703125 -10.3125 C 8.472656 -11.0625 8.257812 -11.78125 8.0625 -12.46875 Z M 8.0625 -12.46875 "/></g></g></g><g fill="#ffffff" fill-opacity="1"><g transform="translate(138.764463, 294.713565)"><g><path d="M 7.03125 0 L 1.265625 0 L 1.265625 -16.53125 L 7.03125 -16.53125 C 8.71875 -16.53125 10.054688 -16.390625 11.046875 -16.109375 C 12.046875 -15.828125 12.84375 -15.378906 13.4375 -14.765625 C 14.039062 -14.148438 14.476562 -13.316406 14.75 -12.265625 C 15.019531 -11.222656 15.15625 -9.894531 15.15625 -8.28125 C 15.15625 -5.414062 14.515625 -3.316406 13.234375 -1.984375 C 11.953125 -0.660156 9.882812 0 7.03125 0 Z M 10.28125 -11.78125 C 10.03125 -12.15625 9.664062 -12.425781 9.1875 -12.59375 C 8.71875 -12.757812 8 -12.84375 7.03125 -12.84375 L 5.34375 -12.84375 L 5.34375 -3.828125 L 7.03125 -3.828125 C 7.988281 -3.828125 8.703125 -3.90625 9.171875 -4.0625 C 9.648438 -4.21875 10.019531 -4.472656 10.28125 -4.828125 C 10.507812 -5.160156 10.675781 -5.601562 10.78125 -6.15625 C 10.882812 -6.707031 10.9375 -7.414062 10.9375 -8.28125 C 10.9375 -9.15625 10.882812 -9.867188 10.78125 -10.421875 C 10.675781 -10.972656 10.507812 -11.425781 10.28125 -11.78125 Z M 10.28125 -11.78125 "/></g></g></g><g fill="#ffffff" fill-opacity="1"><g transform="translate(155.979604, 294.713565)"><g><path d="M 12.65625 -3.828125 L 12.65625 0 L 1.265625 0 L 1.265625 -16.53125 L 12.421875 -16.53125 L 12.421875 -12.84375 L 5.34375 -12.84375 L 5.34375 -10.09375 L 11.4375 -10.09375 L 11.4375 -6.671875 L 5.34375 -6.671875 L 5.34375 -3.828125 Z M 12.65625 -3.828125 "/></g></g></g></svg>