<svg xmlns="http://www.w3.org/2000/svg" xmlns:xlink="http://www.w3.org/1999/xlink" width="900" zoomAndPan="magnify" viewBox="0 0 675 809.999993" height="1080" preserveAspectRatio="xMidYMid meet" version="1.0"><defs><clipPath id="5c6f043159"><path d="M 333.839844 732.113281 L 674.679688 732.113281 L 674.679688 739.554688 L 333.839844 739.554688 Z M 333.839844 732.113281 " clip-rule="nonzero"/></clipPath><clipPath id="5df36a9d27"><path d="M 0.300781 0 L 674.679688 0 L 674.679688 810 L 0.300781 810 Z M 0.300781 0 " clip-rule="nonzero"/></clipPath></defs><path fill="#77d3f1" d="M 337.488281 531.21875 L 153.417969 531.21875 C 148.976562 531.21875 144.730469 529.320312 141.769531 526.011719 C 138.808594 522.710938 137.382812 518.28125 137.867188 513.871094 L 168.371094 234.890625 C 168.984375 229.300781 173.6875 225.082031 179.308594 225.082031 L 337.488281 225.082031 C 339.425781 225.082031 341 226.652344 341 228.59375 C 341 230.527344 339.425781 232.101562 337.488281 232.101562 L 179.308594 232.101562 C 177.273438 232.101562 175.574219 233.632812 175.351562 235.652344 L 144.847656 514.636719 C 144.578125 517.101562 145.34375 519.476562 147 521.324219 C 148.652344 523.171875 150.9375 524.191406 153.417969 524.191406 L 337.488281 524.191406 C 339.425781 524.191406 341 525.765625 341 527.707031 C 341 529.644531 339.425781 531.21875 337.488281 531.21875 " fill-opacity="1" fill-rule="nonzero"/><path fill="#77d3f1" d="M 521.558594 531.21875 L 337.488281 531.21875 C 335.546875 531.21875 333.976562 529.644531 333.976562 527.707031 C 333.976562 525.765625 335.546875 524.191406 337.488281 524.191406 L 521.558594 524.191406 C 524.039062 524.191406 526.320312 523.171875 527.976562 521.324219 C 529.632812 519.476562 530.398438 517.101562 530.128906 514.628906 L 499.621094 235.652344 C 499.402344 233.632812 497.699219 232.101562 495.667969 232.101562 L 337.488281 232.101562 C 335.546875 232.101562 333.976562 230.527344 333.976562 228.59375 C 333.976562 226.652344 335.546875 225.082031 337.488281 225.082031 L 495.667969 225.082031 C 501.289062 225.082031 505.992188 229.300781 506.605469 234.890625 L 537.109375 513.871094 C 537.589844 518.28125 536.167969 522.710938 533.203125 526.019531 C 530.242188 529.320312 525.996094 531.21875 521.558594 531.21875 " fill-opacity="1" fill-rule="nonzero"/><path fill="#6686cc" d="M 337.488281 191.039062 L 135.933594 191.039062 C 133.996094 191.039062 132.421875 189.464844 132.421875 187.527344 C 132.421875 185.585938 133.996094 184.011719 135.933594 184.011719 L 337.488281 184.011719 C 339.425781 184.011719 341 185.585938 341 187.527344 C 341 189.464844 339.425781 191.039062 337.488281 191.039062 " fill-opacity="1" fill-rule="nonzero"/><path fill="#6686cc" d="M 337.488281 572.285156 L 87.628906 572.285156 C 85.691406 572.285156 84.121094 570.710938 84.121094 568.769531 C 84.121094 566.832031 85.691406 565.257812 87.628906 565.257812 L 337.488281 565.257812 C 339.425781 565.257812 341 566.832031 341 568.769531 C 341 570.710938 339.425781 572.285156 337.488281 572.285156 " fill-opacity="1" fill-rule="nonzero"/><path fill="#6686cc" d="M 337.488281 739.1875 L 4.203125 739.1875 C 2.261719 739.1875 0.691406 737.613281 0.691406 735.679688 C 0.691406 733.738281 2.261719 732.164062 4.203125 732.164062 L 337.488281 732.164062 C 339.425781 732.164062 341 733.738281 341 735.679688 C 341 737.613281 339.425781 739.1875 337.488281 739.1875 " fill-opacity="1" fill-rule="nonzero"/><path fill="#6686cc" d="M 337.488281 71.695312 L 71.824219 71.695312 C 69.882812 71.695312 68.3125 70.121094 68.3125 68.183594 C 68.3125 66.242188 69.882812 64.667969 71.824219 64.667969 L 337.488281 64.667969 C 339.425781 64.667969 341 66.242188 341 68.183594 C 341 70.121094 339.425781 71.695312 337.488281 71.695312 " fill-opacity="1" fill-rule="nonzero"/><path fill="#6686cc" d="M 603.152344 71.695312 L 337.488281 71.695312 C 335.546875 71.695312 333.976562 70.121094 333.976562 68.183594 C 333.976562 66.242188 335.546875 64.667969 337.488281 64.667969 L 603.152344 64.667969 C 605.089844 64.667969 606.664062 66.242188 606.664062 68.183594 C 606.664062 70.121094 605.089844 71.695312 603.152344 71.695312 " fill-opacity="1" fill-rule="nonzero"/><path fill="#6686cc" d="M 539.042969 191.039062 L 337.488281 191.039062 C 335.546875 191.039062 333.976562 189.464844 333.976562 187.527344 C 333.976562 185.585938 335.546875 184.011719 337.488281 184.011719 L 539.042969 184.011719 C 540.980469 184.011719 542.554688 185.585938 542.554688 187.527344 C 542.554688 189.464844 540.980469 191.039062 539.042969 191.039062 " fill-opacity="1" fill-rule="nonzero"/><path fill="#6686cc" d="M 587.34375 572.285156 L 337.488281 572.285156 C 335.546875 572.285156 333.976562 570.710938 333.976562 568.769531 C 333.976562 566.832031 335.546875 565.257812 337.488281 565.257812 L 587.34375 565.257812 C 589.285156 565.257812 590.859375 566.832031 590.859375 568.769531 C 590.859375 570.710938 589.285156 572.285156 587.34375 572.285156 " fill-opacity="1" fill-rule="nonzero"/><g clip-path="url(#5c6f043159)"><path fill="#6686cc" d="M 670.777344 739.1875 L 337.488281 739.1875 C 335.546875 739.1875 333.976562 737.613281 333.976562 735.679688 C 333.976562 733.738281 335.546875 732.164062 337.488281 732.164062 L 670.777344 732.164062 C 672.714844 732.164062 674.289062 733.738281 674.289062 735.679688 C 674.289062 737.613281 672.714844 739.1875 670.777344 739.1875 " fill-opacity="1" fill-rule="nonzero"/></g><path fill="#6686cc" d="M 386.667969 692.714844 C 384.730469 692.714844 383.160156 691.140625 383.160156 689.207031 L 383.160156 638.660156 C 383.160156 636.722656 384.730469 635.152344 386.667969 635.152344 C 388.609375 635.152344 390.179688 636.722656 390.179688 638.660156 L 390.179688 689.207031 C 390.179688 691.140625 388.609375 692.714844 386.667969 692.714844 " fill-opacity="1" fill-rule="nonzero"/><path fill="#6686cc" d="M 386.667969 607.996094 C 379.183594 607.996094 373.09375 614.085938 373.09375 621.570312 C 373.09375 629.058594 379.183594 635.152344 386.667969 635.152344 C 394.152344 635.152344 400.242188 629.058594 400.242188 621.570312 C 400.242188 614.085938 394.152344 607.996094 386.667969 607.996094 Z M 386.667969 642.171875 C 375.3125 642.171875 366.074219 632.929688 366.074219 621.570312 C 366.074219 610.214844 375.3125 600.96875 386.667969 600.96875 C 398.027344 600.96875 407.265625 610.214844 407.265625 621.570312 C 407.265625 632.929688 398.027344 642.171875 386.667969 642.171875 " fill-opacity="1" fill-rule="nonzero"/><path fill="#6686cc" d="M 506.023438 645.613281 C 500.140625 645.613281 495.167969 648.738281 495.167969 652.4375 C 495.167969 656.140625 500.140625 659.273438 506.023438 659.273438 C 511.90625 659.273438 516.878906 656.140625 516.878906 652.4375 C 516.878906 648.738281 511.90625 645.613281 506.023438 645.613281 Z M 506.023438 666.296875 C 495.996094 666.296875 488.144531 660.210938 488.144531 652.4375 C 488.144531 644.671875 495.996094 638.585938 506.023438 638.585938 C 516.046875 638.585938 523.898438 644.671875 523.898438 652.4375 C 523.898438 660.210938 516.046875 666.296875 506.023438 666.296875 " fill-opacity="1" fill-rule="nonzero"/><path fill="#efefed" d="M 202.378906 623.339844 C 196.070312 623.339844 190.742188 626.828125 190.742188 630.949219 C 190.742188 635.078125 196.070312 638.5625 202.378906 638.5625 C 208.683594 638.5625 214.011719 635.078125 214.011719 630.949219 C 214.011719 626.828125 208.683594 623.339844 202.378906 623.339844 Z M 202.378906 644.027344 C 192.792969 644.027344 185.28125 638.28125 185.28125 630.949219 C 185.28125 623.621094 192.792969 617.875 202.378906 617.875 C 211.964844 617.875 219.476562 623.621094 219.476562 630.949219 C 219.476562 638.160156 211.804688 644.027344 202.378906 644.027344 " fill-opacity="1" fill-rule="nonzero"/><path fill="#efefed" d="M 202.378906 665.273438 C 196.070312 665.273438 190.742188 668.757812 190.742188 672.886719 C 190.742188 677.011719 196.070312 680.496094 202.378906 680.496094 C 208.683594 680.496094 214.011719 677.011719 214.011719 672.886719 C 214.011719 668.757812 208.683594 665.273438 202.378906 665.273438 Z M 202.378906 685.960938 C 192.792969 685.960938 185.28125 680.214844 185.28125 672.886719 C 185.28125 665.554688 192.792969 659.808594 202.378906 659.808594 C 211.804688 659.808594 219.476562 665.675781 219.476562 672.886719 C 219.476562 680.214844 211.964844 685.960938 202.378906 685.960938 " fill-opacity="1" fill-rule="nonzero"/><path fill="#efefed" d="M 291.414062 623.339844 C 285.105469 623.339844 279.777344 626.828125 279.777344 630.949219 C 279.777344 635.078125 285.105469 638.5625 291.414062 638.5625 C 297.722656 638.5625 303.050781 635.078125 303.050781 630.949219 C 303.050781 626.828125 297.722656 623.339844 291.414062 623.339844 Z M 291.414062 644.027344 C 281.988281 644.027344 274.316406 638.160156 274.316406 630.949219 C 274.316406 623.621094 281.828125 617.875 291.414062 617.875 C 301 617.875 308.511719 623.621094 308.511719 630.949219 C 308.511719 638.160156 300.839844 644.027344 291.414062 644.027344 " fill-opacity="1" fill-rule="nonzero"/><path fill="#efefed" d="M 291.414062 665.273438 C 285.105469 665.273438 279.777344 668.757812 279.777344 672.886719 C 279.777344 677.011719 285.105469 680.496094 291.414062 680.496094 C 297.722656 680.496094 303.050781 677.011719 303.050781 672.886719 C 303.050781 668.757812 297.722656 665.273438 291.414062 665.273438 Z M 291.414062 685.960938 C 281.828125 685.960938 274.316406 680.214844 274.316406 672.886719 C 274.316406 665.675781 281.988281 659.808594 291.414062 659.808594 C 300.839844 659.808594 308.511719 665.675781 308.511719 672.886719 C 308.511719 680.214844 301 685.960938 291.414062 685.960938 " fill-opacity="1" fill-rule="nonzero"/><path fill="#efefed" d="M 337.488281 491.347656 L 203.550781 491.347656 C 196.117188 491.347656 189.054688 488.222656 184.175781 482.777344 C 179.445312 477.496094 177.261719 470.757812 178.027344 463.789062 L 198.015625 282.007812 C 199.605469 267.527344 212.132812 256.605469 227.144531 256.605469 L 337.488281 256.605469 C 338.996094 256.605469 340.21875 257.832031 340.21875 259.335938 C 340.21875 260.847656 338.996094 262.074219 337.488281 262.074219 L 227.144531 262.074219 C 214.921875 262.074219 204.730469 270.898438 203.441406 282.605469 L 183.453125 464.386719 C 182.863281 469.789062 184.5625 475.019531 188.242188 479.132812 C 192.085938 483.417969 197.664062 485.878906 203.550781 485.878906 L 337.488281 485.878906 C 338.996094 485.878906 340.21875 487.105469 340.21875 488.613281 C 340.21875 490.121094 338.996094 491.347656 337.488281 491.347656 " fill-opacity="1" fill-rule="nonzero"/><path fill="#efefed" d="M 471.425781 491.347656 L 337.488281 491.347656 C 335.980469 491.347656 334.757812 490.121094 334.757812 488.613281 C 334.757812 487.105469 335.980469 485.878906 337.488281 485.878906 L 471.425781 485.878906 C 477.308594 485.878906 482.886719 483.417969 486.730469 479.132812 C 490.414062 475.019531 492.113281 469.789062 491.519531 464.386719 L 471.535156 282.605469 C 470.242188 270.898438 460.054688 262.074219 447.832031 262.074219 L 337.488281 262.074219 C 335.980469 262.074219 334.757812 260.847656 334.757812 259.335938 C 334.757812 257.832031 335.980469 256.605469 337.488281 256.605469 L 447.832031 256.605469 C 462.84375 256.605469 475.367188 267.527344 476.960938 282.007812 L 496.949219 463.789062 C 497.714844 470.757812 495.53125 477.496094 490.800781 482.773438 C 485.921875 488.222656 478.859375 491.347656 471.425781 491.347656 " fill-opacity="1" fill-rule="nonzero"/><path fill="#efefed" d="M 461.503906 623.339844 C 455.195312 623.339844 449.871094 626.828125 449.871094 630.949219 C 449.871094 635.078125 455.195312 638.5625 461.503906 638.5625 C 467.8125 638.5625 473.140625 635.078125 473.140625 630.949219 C 473.140625 626.828125 467.8125 623.339844 461.503906 623.339844 Z M 461.503906 644.027344 C 452.078125 644.027344 444.40625 638.160156 444.40625 630.949219 C 444.40625 623.621094 451.917969 617.875 461.503906 617.875 C 471.089844 617.875 478.601562 623.621094 478.601562 630.949219 C 478.601562 638.160156 470.933594 644.027344 461.503906 644.027344 " fill-opacity="1" fill-rule="nonzero"/><path fill="#efefed" d="M 461.503906 665.273438 C 455.195312 665.273438 449.871094 668.757812 449.871094 672.886719 C 449.871094 677.011719 455.195312 680.496094 461.503906 680.496094 C 467.8125 680.496094 473.140625 677.011719 473.140625 672.886719 C 473.140625 668.757812 467.8125 665.273438 461.503906 665.273438 Z M 461.503906 685.960938 C 451.917969 685.960938 444.40625 680.214844 444.40625 672.886719 C 444.40625 665.675781 452.078125 659.808594 461.503906 659.808594 C 470.933594 659.808594 478.601562 665.675781 478.601562 672.886719 C 478.601562 680.214844 471.089844 685.960938 461.503906 685.960938 " fill-opacity="1" fill-rule="nonzero"/><path fill="#efefed" d="M 550.539062 623.339844 C 544.234375 623.339844 538.90625 626.828125 538.90625 630.949219 C 538.90625 635.078125 544.234375 638.5625 550.539062 638.5625 C 556.847656 638.5625 562.175781 635.078125 562.175781 630.949219 C 562.175781 626.828125 556.847656 623.339844 550.539062 623.339844 Z M 550.539062 644.027344 C 541.113281 644.027344 533.445312 638.160156 533.445312 630.949219 C 533.445312 623.621094 540.953125 617.875 550.539062 617.875 C 560.128906 617.875 567.636719 623.621094 567.636719 630.949219 C 567.636719 638.160156 559.96875 644.027344 550.539062 644.027344 " fill-opacity="1" fill-rule="nonzero"/><path fill="#efefed" d="M 550.539062 665.273438 C 544.234375 665.273438 538.90625 668.757812 538.90625 672.886719 C 538.90625 677.011719 544.234375 680.496094 550.539062 680.496094 C 556.847656 680.496094 562.175781 677.011719 562.175781 672.886719 C 562.175781 668.757812 556.847656 665.273438 550.539062 665.273438 Z M 550.539062 685.960938 C 540.953125 685.960938 533.445312 680.214844 533.445312 672.886719 C 533.445312 665.675781 541.113281 659.808594 550.539062 659.808594 C 559.96875 659.808594 567.636719 665.675781 567.636719 672.886719 C 567.636719 680.214844 560.128906 685.960938 550.539062 685.960938 " fill-opacity="1" fill-rule="nonzero"/><path fill="#f146a9" d="M 127.542969 692.714844 C 125.605469 692.714844 124.03125 691.140625 124.03125 689.207031 L 124.03125 638.660156 C 124.03125 636.722656 125.605469 635.152344 127.542969 635.152344 C 129.480469 635.152344 131.054688 636.722656 131.054688 638.660156 L 131.054688 689.207031 C 131.054688 691.140625 129.480469 692.714844 127.542969 692.714844 " fill-opacity="1" fill-rule="nonzero"/><path fill="#f146a9" d="M 127.542969 607.996094 C 120.058594 607.996094 113.96875 614.085938 113.96875 621.570312 C 113.96875 629.058594 120.058594 635.152344 127.542969 635.152344 C 135.027344 635.152344 141.117188 629.058594 141.117188 621.570312 C 141.117188 614.085938 135.027344 607.996094 127.542969 607.996094 Z M 127.542969 642.171875 C 116.183594 642.171875 106.945312 632.929688 106.945312 621.570312 C 106.945312 610.214844 116.183594 600.96875 127.542969 600.96875 C 138.898438 600.96875 148.136719 610.214844 148.136719 621.570312 C 148.136719 632.929688 138.898438 642.171875 127.542969 642.171875 " fill-opacity="1" fill-rule="nonzero"/><path fill="#f146a9" d="M 246.894531 645.613281 C 241.011719 645.613281 236.042969 648.738281 236.042969 652.4375 C 236.042969 656.140625 241.011719 659.273438 246.894531 659.273438 C 252.78125 659.273438 257.75 656.140625 257.75 652.4375 C 257.75 648.738281 252.78125 645.613281 246.894531 645.613281 Z M 246.894531 666.296875 C 236.871094 666.296875 229.015625 660.210938 229.015625 652.4375 C 229.015625 644.671875 236.871094 638.585938 246.894531 638.585938 C 256.921875 638.585938 264.773438 644.671875 264.773438 652.4375 C 264.773438 660.210938 256.921875 666.296875 246.894531 666.296875 " fill-opacity="1" fill-rule="nonzero"/><g clip-path="url(#5df36a9d27)"><path fill="#f146a9" d="M 597 868.710938 L 77.972656 868.710938 C 76.570312 868.710938 75.277344 867.960938 74.582031 866.746094 L 0.8125 737.613281 C 0.21875 736.578125 0.136719 735.320312 0.582031 734.207031 L 68.207031 567.304688 C 68.800781 565.835938 70.234375 564.867188 71.824219 564.867188 L 84.195312 564.867188 L 131.90625 188.277344 L 68.386719 70.027344 C 68.082031 69.464844 67.921875 68.828125 67.921875 68.183594 L 67.921875 -116.636719 C 67.921875 -118.789062 69.667969 -120.539062 71.824219 -120.539062 C 73.976562 -120.539062 75.722656 -118.789062 75.722656 -116.636719 L 75.722656 67.199219 L 139.371094 185.679688 C 139.753906 186.398438 139.90625 187.210938 139.804688 188.015625 L 91.5 569.261719 C 91.253906 571.214844 89.59375 572.671875 87.628906 572.671875 L 74.453125 572.671875 L 8.527344 735.386719 L 80.234375 860.902344 L 594.734375 860.902344 L 666.445312 735.386719 L 600.519531 572.671875 L 587.34375 572.671875 C 585.375 572.671875 583.71875 571.214844 583.472656 569.261719 L 535.167969 188.015625 C 535.066406 187.210938 535.21875 186.398438 535.601562 185.679688 L 599.25 67.199219 L 599.25 -116.636719 C 599.25 -118.789062 600.996094 -120.539062 603.152344 -120.539062 C 605.308594 -120.539062 607.054688 -118.789062 607.054688 -116.636719 L 607.054688 68.183594 C 607.054688 68.828125 606.894531 69.464844 606.589844 70.027344 L 543.066406 188.277344 L 590.78125 564.867188 L 603.152344 564.867188 C 604.742188 564.867188 606.171875 565.835938 606.769531 567.304688 L 674.394531 734.207031 C 674.835938 735.320312 674.757812 736.578125 674.164062 737.613281 L 600.390625 866.746094 C 599.695312 867.960938 598.402344 868.710938 597 868.710938 " fill-opacity="1" fill-rule="nonzero"/></g></svg>