<svg xmlns="http://www.w3.org/2000/svg" xmlns:xlink="http://www.w3.org/1999/xlink" width="500" zoomAndPan="magnify" viewBox="0 0 375 374.999991" height="500" preserveAspectRatio="xMidYMid meet" version="1.0"><defs><clipPath id="ecef8d4cfc"><path d="M 153 29 L 360.464844 29 L 360.464844 346.21875 L 153 346.21875 Z M 153 29 " clip-rule="nonzero"/></clipPath><clipPath id="56d13cd607"><path d="M 14.714844 103 L 274 103 L 274 346.21875 L 14.714844 346.21875 Z M 14.714844 103 " clip-rule="nonzero"/></clipPath></defs><g clip-path="url(#ecef8d4cfc)"><path fill="#ffffff" d="M 268.449219 279.070312 L 153.132812 275.515625 L 360.441406 346.1875 L 187.570312 29.039062 L 160.238281 79.183594 L 187.570312 129.675781 L 268.449219 279.070312 " fill-opacity="1" fill-rule="nonzero"/></g><g clip-path="url(#56d13cd607)"><path fill="#f4f6fc" d="M 94.128906 301.097656 L 149.019531 200.398438 L 174.117188 154.359375 L 146.769531 103.890625 L 14.699219 346.1875 L 273.09375 346.1875 L 94.128906 301.097656 " fill-opacity="1" fill-rule="nonzero"/></g><path fill="#ffffff" d="M 174.117188 154.359375 L 149.019531 200.398438 L 181.640625 260.652344 L 232.5625 262.21875 L 174.117188 154.359375 " fill-opacity="1" fill-rule="nonzero"/></svg>